<svg width="1000" height="178" viewBox="0 0 1000 178" fill="none" xmlns="http://www.w3.org/2000/svg">
<g clip-path="url(#clip0)">
<path d="M260.905 103.429C259.534 105.075 257.613 106.447 255.418 107.819C252.949 109.191 250.206 110.288 247.188 111.111C244.17 112.209 240.878 112.483 237.311 112.483C231.276 112.483 226.063 111.111 221.125 108.368C216.461 105.624 212.62 101.509 209.877 96.5707C207.133 91.6324 205.761 85.3224 205.761 78.4637C205.761 73.5254 206.584 69.1358 208.23 65.0206C209.877 60.9054 212.346 57.3388 215.363 54.321C218.381 51.3032 221.948 48.834 225.789 47.188C229.63 45.5419 233.745 44.7188 238.134 44.7188C241.701 44.7188 244.993 45.2675 248.285 46.3649C251.303 47.4623 254.047 48.834 256.516 50.7545C258.985 52.4006 260.631 54.321 262.003 56.2414L255.418 63.1002C252.949 60.631 250.48 58.7106 247.737 57.0645C244.993 55.4184 241.701 54.5954 238.409 54.5954C234.568 54.5954 231.001 55.4184 227.709 57.3388C224.417 59.2593 221.674 62.0028 219.479 65.5693C217.284 69.1358 216.461 73.251 216.461 78.1893C216.461 83.4019 217.558 87.7915 219.753 91.358C221.948 94.9246 224.691 97.6681 228.258 99.3141C231.824 100.96 235.665 102.058 239.506 102.058C243.347 102.058 246.639 101.235 249.383 99.8628C252.126 98.4911 254.595 96.845 256.241 94.9246L260.905 103.429Z" fill="#0A7BA8"/>
<path d="M320.165 86.6941C320.165 91.6324 319.067 96.2963 316.872 100.137C314.678 103.978 311.66 106.996 307.819 109.191C303.978 111.385 299.588 112.483 294.925 112.483C290.261 112.483 285.871 111.385 282.03 109.191C278.189 106.996 275.171 103.978 272.977 100.137C270.782 96.2963 269.685 91.9068 269.685 86.6941C269.685 81.7559 270.782 77.092 272.977 73.2511C275.171 69.4102 278.189 66.3924 282.03 64.1976C285.871 62.0028 290.261 60.9054 294.925 60.9054C299.588 60.9054 303.978 62.0028 307.819 64.1976C311.66 66.3924 314.678 69.4102 316.872 73.2511C319.067 77.092 320.165 81.4815 320.165 86.6941ZM310.014 86.6941C310.014 83.402 309.465 80.3841 308.093 77.915C306.722 75.4459 304.801 73.2511 302.606 71.8793C300.137 70.5076 297.668 69.6845 294.65 69.6845C291.632 69.6845 289.163 70.5076 286.694 71.8793C284.225 73.2511 282.579 75.1715 281.207 77.915C279.835 80.3841 279.287 83.402 279.287 86.6941C279.287 89.9863 279.835 93.0042 281.207 95.4733C282.579 97.9424 284.499 100.137 286.694 101.509C289.163 102.881 291.632 103.704 294.65 103.704C297.668 103.704 300.137 102.881 302.606 101.509C305.075 100.137 306.722 97.9424 308.093 95.4733C309.465 93.0042 310.288 89.9863 310.014 86.6941Z" fill="#0A7BA8"/>
<path d="M356.653 60.9054C361.043 60.9054 364.609 61.7284 367.078 63.6489C369.547 65.5693 371.193 68.0385 372.291 71.0563C373.388 74.0741 373.663 77.6406 373.663 81.4815V111.934H363.786V82.0302C363.786 79.5611 363.512 77.3663 362.963 75.4459C362.414 73.5254 361.317 72.1537 359.671 71.0563C358.025 69.9589 356.104 69.4102 353.361 69.6845C350.892 69.6845 348.697 70.2332 346.502 71.3306C344.582 72.428 342.936 73.7998 341.838 75.7202C340.741 77.3663 340.192 79.5611 340.192 81.4815V111.66H330.315V61.7284H340.192V69.6845C341.838 67.2154 344.033 65.295 346.776 63.3745C350.069 61.7284 353.361 60.9054 356.653 60.9054Z" fill="#0A7BA8"/>
<path d="M413.169 60.9054C417.558 60.9054 421.125 61.7284 423.594 63.6489C426.063 65.5693 427.709 68.0385 428.807 71.0563C429.904 74.0741 430.178 77.6406 430.178 81.4815V111.934H420.302V82.0302C420.302 79.5611 420.027 77.3663 419.479 75.4459C418.93 73.5254 417.833 72.1537 416.187 71.0563C414.54 69.9589 412.62 69.4102 409.877 69.6845C407.407 69.6845 405.213 70.2332 403.018 71.3306C401.097 72.428 399.451 73.7998 398.354 75.7202C397.257 77.3663 396.708 79.5611 396.708 81.4815V111.66H386.831V61.7284H396.708V69.6845C398.354 67.2154 400.549 65.295 403.292 63.3745C406.31 61.7284 409.602 60.9054 413.169 60.9054Z" fill="#0A7BA8"/>
<path d="M486.42 105.075C484.225 106.996 481.481 108.642 477.915 110.288C474.348 111.934 470.782 112.483 466.941 112.483C461.728 112.483 457.064 111.386 453.224 109.191C449.383 106.996 446.091 103.978 443.896 100.137C441.701 96.2963 440.604 91.9068 440.604 86.9685C440.604 81.4815 441.701 76.5432 444.17 72.7024C446.639 68.8615 449.657 65.8437 453.498 63.6489C457.339 61.4541 461.454 60.3567 466.118 60.3567C470.233 60.3567 474.074 61.4541 477.366 63.3745C480.658 65.295 483.402 68.3128 485.597 71.8793C487.517 75.4459 488.615 79.5611 488.615 84.4994V88.6146H450.48C451.029 93.0042 452.949 96.5707 455.967 99.3142C458.985 102.058 463.1 103.155 467.764 103.155C471.331 103.155 474.074 102.606 476.269 101.235C478.464 99.8629 480.11 98.7655 481.481 97.3937L486.42 105.075ZM465.844 69.6845C462.003 69.6845 458.985 70.5076 455.967 72.428C453.224 74.0741 451.303 77.0919 450.48 81.4815H478.464V80.9328C478.189 78.738 477.641 76.8176 476.269 75.1715C475.171 73.5254 473.525 72.1537 471.605 71.3306C469.959 70.2332 468.038 69.6845 465.844 69.6845Z" fill="#0A7BA8"/>
<path d="M505.35 86.6941C505.35 89.9863 506.173 93.0041 507.545 95.4733C508.916 97.9424 511.111 100.137 513.306 101.509C515.775 102.881 518.244 103.704 521.262 103.704C524.554 103.704 527.298 102.881 529.492 101.235C531.962 99.5885 533.608 97.9424 535.254 96.022L540.741 102.606C539.643 104.252 537.997 105.899 535.802 107.27C533.608 108.642 531.413 110.014 528.669 110.837C525.926 111.66 523.182 112.209 520.439 112.209C515.775 112.209 511.66 111.111 508.093 108.916C504.527 106.722 501.509 103.429 499.314 99.5885C497.119 95.7476 496.022 91.3581 496.022 86.4198C496.022 81.4815 497.119 77.0919 499.314 73.2511C501.509 69.4102 504.252 66.3924 508.093 63.9232C511.66 61.7284 515.775 60.631 520.439 60.631C525.103 60.631 529.218 61.4541 532.785 63.3745C536.351 65.295 539.095 67.7641 540.741 70.5076L535.254 77.0919C533.882 74.8972 531.687 72.9767 528.944 71.605C526.2 69.9589 523.731 69.4102 520.988 69.4102C517.97 69.4102 515.226 70.2332 513.031 71.605C510.562 72.9767 508.642 75.1715 507.27 77.6406C506.173 80.3841 505.35 83.402 505.35 86.6941Z" fill="#0A7BA8"/>
<path d="M565.706 111.66H555.83V71.3306H545.405V61.7284H555.83V49.1084H565.706V61.7284H577.229V71.3306H565.706V111.66Z" fill="#0A7BA8"/>
<path d="M698.217 45.2675L677.092 111.66H669.959L652.949 71.3306L636.488 111.66H629.63L608.505 45.2675H619.479L632.373 86.6941C632.922 88.3402 633.196 89.712 633.47 91.0837C633.745 92.4554 634.019 93.8272 634.294 95.1989C634.568 93.8272 635.117 92.7298 635.391 91.0837C635.94 89.712 636.488 88.3402 637.037 86.6941L649.108 56.7902H658.436L669.959 86.6941C670.782 88.3402 671.331 89.9863 671.605 91.3581C672.154 92.7298 672.428 94.1015 672.702 95.1989C672.977 94.1015 673.251 92.7298 673.525 91.3581C673.8 89.9863 674.348 88.3402 674.897 86.6941L687.517 45.5419H698.217V45.2675Z" fill="#0A7BA8"/>
<path d="M747.599 105.075C745.405 106.996 742.661 108.642 739.095 110.288C735.528 111.934 731.962 112.483 728.121 112.483C722.908 112.483 718.244 111.386 714.403 109.191C710.562 106.996 707.27 103.978 705.075 100.137C702.881 96.2963 701.783 91.9068 701.783 86.9685C701.783 81.4815 702.881 76.5432 705.35 72.7024C707.819 68.8615 710.837 65.8437 714.678 63.6489C718.519 61.4541 722.634 60.3567 727.298 60.3567C731.413 60.3567 735.254 61.4541 738.546 63.3745C741.838 65.295 744.582 68.3128 746.776 71.8793C748.697 75.4459 749.794 79.5611 749.794 84.4994V88.6146H711.66C712.209 93.0042 714.129 96.5707 717.147 99.3142C720.165 102.058 724.28 103.155 728.944 103.155C732.51 103.155 735.254 102.606 737.449 101.235C739.643 99.8629 741.289 98.7655 742.661 97.3937L747.599 105.075ZM727.298 69.6845C723.457 69.6845 720.439 70.5076 717.421 72.428C714.678 74.0741 712.757 77.0919 711.934 81.4815H739.918V80.9328C739.643 78.738 739.095 76.8176 737.723 75.1715C736.626 73.5254 734.979 72.1537 733.059 71.3306C731.413 70.2332 729.492 69.6845 727.298 69.6845Z" fill="#0A7BA8"/>
<path d="M760.494 111.66V41.4266H770.37V111.66H760.494Z" fill="#0A7BA8"/>
<path d="M784.088 111.66V41.4266H793.964V111.66H784.088Z" fill="#0A7BA8"/>
<path d="M834.019 60.9054C838.409 60.9054 841.975 61.7284 844.444 63.6489C846.914 65.5693 848.56 68.0385 849.657 71.0563C850.755 74.0741 851.029 77.6406 851.029 81.4815V111.934H841.152V82.0302C841.152 79.5611 840.878 77.3663 840.329 75.4459C839.781 73.5254 838.683 72.1537 837.037 71.0563C835.391 69.9589 833.471 69.4102 830.727 69.6845C828.258 69.6845 826.063 70.2332 823.868 71.3306C821.948 72.428 820.302 73.7998 819.204 75.7202C818.107 77.3663 817.558 79.5611 817.558 81.4815V111.66H807.682V61.7284H817.558V69.6845C819.204 67.2154 821.399 65.295 824.143 63.3745C827.161 61.7284 830.453 60.9054 834.019 60.9054Z" fill="#0A7BA8"/>
<path d="M906.996 105.075C904.801 106.996 902.058 108.642 898.491 110.288C894.925 111.934 891.358 112.483 887.517 112.483C882.305 112.483 877.641 111.386 873.8 109.191C869.959 106.996 866.667 103.978 864.472 100.137C862.277 96.2963 861.18 91.9068 861.18 86.9685C861.18 81.4815 862.277 76.5432 864.746 72.7024C867.215 68.8615 870.233 65.8437 874.074 63.6489C877.915 61.4541 882.03 60.3567 886.694 60.3567C890.809 60.3567 894.65 61.4541 897.942 63.3745C901.235 65.295 903.978 68.3128 906.173 71.8793C908.093 75.4459 909.191 79.5611 909.191 84.4994V88.6146H871.056C871.605 93.0042 873.525 96.5707 876.543 99.3142C879.561 102.058 883.676 103.155 888.34 103.155C891.907 103.155 894.65 102.606 896.845 101.235C899.04 99.8629 900.686 98.7655 902.058 97.3937L906.996 105.075ZM886.694 69.6845C882.853 69.6845 879.835 70.5076 876.818 72.428C874.074 74.0741 872.154 77.0919 871.331 81.4815H899.314V80.9328C899.04 78.738 898.491 76.8176 897.119 75.1715C896.022 73.5254 894.376 72.1537 892.455 71.3306C890.809 70.2332 888.889 69.6845 886.694 69.6845Z" fill="#0A7BA8"/>
<path d="M948.697 74.8972C947.051 73.2511 944.856 71.605 942.661 70.5076C940.466 69.4102 938.272 68.8615 936.351 68.8615C934.979 68.8615 933.608 69.1359 932.51 69.4102C931.139 69.6845 930.041 70.2332 929.218 71.0563C928.395 71.8793 927.846 73.2511 927.846 74.8972C927.846 77.092 928.944 78.7381 930.864 79.8354C932.785 80.6585 935.254 81.7559 938.272 82.3046C940.741 83.1276 943.484 83.9507 945.953 85.0481C948.422 86.1455 950.343 87.5172 951.989 89.712C953.635 91.6324 954.458 94.3759 954.458 98.2168C954.458 101.235 953.635 103.978 951.715 106.173C950.069 108.368 947.599 110.014 944.856 111.111C942.112 112.209 939.095 112.757 936.077 112.757C932.51 112.757 928.944 112.209 925.377 110.837C921.811 109.465 918.793 107.27 916.324 104.252L922.908 98.4911C924.554 100.412 926.475 102.058 928.669 103.155C930.864 104.252 933.608 104.801 936.625 104.801C937.723 104.801 939.095 104.527 940.192 104.252C941.289 103.978 942.387 103.155 943.21 102.332C944.033 101.509 944.582 100.137 944.582 98.4911C944.582 96.8451 944.033 95.7476 943.21 94.9246C942.387 94.1016 941.015 93.2785 939.643 92.7298C937.997 92.1811 936.351 91.6324 934.705 91.3581C931.962 90.535 929.218 89.712 926.749 88.6146C924.005 87.5172 921.811 85.8711 920.165 83.9507C918.519 82.0302 917.421 79.0124 917.421 75.4459C917.421 72.428 918.244 69.9589 919.89 67.7641C921.536 65.5693 923.731 63.9232 926.475 62.8258C929.218 61.7284 932.236 61.1797 935.254 61.1797C938.272 61.1797 941.564 61.7284 944.856 63.1002C948.422 64.4719 951.166 66.3924 953.361 69.1359L948.697 74.8972Z" fill="#0A7BA8"/>
<path d="M993.964 74.8972C992.318 73.2511 990.123 71.605 987.929 70.5076C985.734 69.4102 983.539 68.8615 981.619 68.8615C980.247 68.8615 978.875 69.1359 977.778 69.4102C976.406 69.6845 975.309 70.2332 974.486 71.0563C973.663 71.8793 973.114 73.2511 973.114 74.8972C973.114 77.092 974.211 78.7381 976.132 79.8354C978.052 80.6585 980.521 81.7559 983.539 82.3046C986.008 83.1276 988.752 83.9507 991.221 85.0481C993.69 86.1455 995.61 87.5172 997.257 89.712C998.903 91.6324 999.726 94.3759 999.726 98.2168C999.726 101.235 998.903 103.978 996.982 106.173C995.336 108.368 992.867 110.014 990.123 111.111C987.38 112.209 984.362 112.757 981.344 112.757C977.778 112.757 974.211 112.209 970.645 110.837C967.078 109.465 964.06 107.27 961.591 104.252L968.176 98.4911C969.822 100.412 971.742 102.058 973.937 103.155C976.132 104.252 978.875 104.801 981.893 104.801C982.99 104.801 984.362 104.527 985.46 104.252C986.557 103.978 987.654 103.155 988.477 102.332C989.3 101.509 989.849 100.137 989.849 98.4911C989.849 96.8451 989.3 95.7476 988.477 94.9246C987.654 94.1016 986.283 93.2785 984.911 92.7298C983.265 92.1811 981.619 91.6324 979.973 91.3581C977.229 90.535 974.486 89.712 972.016 88.6146C969.273 87.5172 967.078 85.8711 965.432 83.9507C963.786 82.0302 962.689 79.0124 962.689 75.4459C962.689 72.428 963.512 69.9589 965.158 67.7641C966.804 65.5693 968.999 63.9232 971.742 62.8258C974.486 61.7284 977.503 61.1797 980.521 61.1797C983.539 61.1797 986.831 61.7284 990.123 63.1002C993.69 64.4719 996.433 66.3924 998.628 69.1359L993.964 74.8972Z" fill="#0A7BA8"/>
<path d="M109.465 141.564C144.314 141.564 172.565 113.313 172.565 78.4637C172.565 43.6144 144.314 15.3635 109.465 15.3635C74.6158 15.3635 46.3649 43.6144 46.3649 78.4637C46.3649 113.313 74.6158 141.564 109.465 141.564Z" fill="#37C5EB"/>
<path d="M100.686 177.229C103.868 177.229 106.447 174.65 106.447 171.468C106.447 168.286 103.868 165.706 100.686 165.706C97.504 165.706 94.9246 168.286 94.9246 171.468C94.9246 174.65 97.504 177.229 100.686 177.229Z" fill="#37C5EB"/>
<path d="M49.3827 163.512C53.7768 163.512 57.3388 159.95 57.3388 155.556C57.3388 151.162 53.7768 147.599 49.3827 147.599C44.9887 147.599 41.4266 151.162 41.4266 155.556C41.4266 159.95 44.9887 163.512 49.3827 163.512Z" fill="#37C5EB"/>
<path d="M16.4609 124.829C22.0671 124.829 26.6118 120.284 26.6118 114.678C26.6118 109.071 22.0671 104.527 16.4609 104.527C10.8547 104.527 6.31 109.071 6.31 114.678C6.31 120.284 10.8547 124.829 16.4609 124.829Z" fill="#37C5EB"/>
<path d="M12.3457 72.428C19.164 72.428 24.6914 66.9006 24.6914 60.0823C24.6914 53.264 19.164 47.7366 12.3457 47.7366C5.52735 47.7366 0 53.264 0 60.0823C0 66.9006 5.52735 72.428 12.3457 72.428Z" fill="#37C5EB"/>
<path d="M38.6831 28.5322C46.5621 28.5322 52.9492 22.1451 52.9492 14.2661C52.9492 6.38716 46.5621 0 38.6831 0C30.8042 0 24.417 6.38716 24.417 14.2661C24.417 22.1451 30.8042 28.5322 38.6831 28.5322Z" fill="#37C5EB"/>
</g>
<defs>
<clipPath id="clip0">
<rect width="1000" height="177.229" fill="white"/>
</clipPath>
</defs>
</svg>
